# xmcd
#
# Track frame offsets:
#	150
#	14946
#	29896
#	47598
#	67233
#	79073
#	102471
#	123424
#	141459
#	156422
#	170374
#	187935
#
# Disc length: 2631 seconds
# Revision: 0
# Processed by: cddbd v1.5.2PL0 Copyright (c) Steve Scherf et al.
# Submitted via: dBpowerAMP V12.0
#
DISCID=b50a450c
DTITLE=Johnnie Red and The Roosters - Brewing Up A Batch of Blues
DYEAR=2010
DGENRE=Blues
TTITLE0=Got My Mojo Workin'
TTITLE1=When It All Comes Down
TTITLE2=Jake's Blues
TTITLE3=How Many More Years
TTITLE4=Gumbo Mombo
TTITLE5=Little Red Rooster
TTITLE6=Black Cat Bone
TTITLE7=Tribute to Lightin'
TTITLE8=Rock Me baby
TTITLE9=My Love Will Never Die
TTITLE10=Well, I Done Got Over It
TTITLE11=Flat Tire
EXTD=
EXTT0=
EXTT1=
EXTT2=
EXTT3=
EXTT4=
EXTT5=
EXTT6=
EXTT7=
EXTT8=
EXTT9=
EXTT10=
EXTT11=
PLAYORDER=
